<?xml version="1.0" encoding="UTF-8" standalone="no"?>
<!DOCTYPE svg PUBLIC "-//W3C//DTD SVG 1.1//EN" "http://www.w3.org/Graphics/SVG/1.1/DTD/svg11.dtd">
<svg width="100%" height="100%" viewBox="0 0 9 7" version="1.1" xmlns="http://www.w3.org/2000/svg" xmlns:xlink="http://www.w3.org/1999/xlink" xml:space="preserve" xmlns:serif="http://www.serif.com/" style="fill-rule:evenodd;clip-rule:evenodd;stroke-linejoin:round;stroke-miterlimit:2;">
    <g id="Artboard20" transform="matrix(1.21397,0,0,1.21397,-0.89549,12.5268)">
        <rect x="0.738" y="-10.319" width="6.61" height="5.56" style="fill:none;"/>
        <g transform="matrix(0.854743,0,0,1.10875,-4474.76,-1085.72)">
            <g id="Artboard19">
                <g transform="matrix(-0.963738,0,0,0.742947,9820.12,219.89)">
                    <path d="M4751.99,1012.31C4751.99,1012.52 4751.81,1012.7 4751.59,1012.7L4749.57,1012.7C4749.35,1012.7 4749.18,1012.53 4749.18,1012.31L4749.18,1011.95C4749.17,1011.49 4749.36,1011.05 4749.68,1010.72C4750.01,1010.4 4750.45,1010.21 4750.91,1010.21L4755.39,1010.21C4755.5,1010.21 4755.6,1010.25 4755.67,1010.33C4755.75,1010.4 4755.79,1010.5 4755.79,1010.61L4755.79,1011.34C4755.79,1011.56 4755.61,1011.74 4755.39,1011.74L4752.57,1011.74C4752.25,1011.74 4751.99,1011.92 4751.99,1012.15L4751.99,1012.31Z" style="fill:rgb(96,90,238);"/>
                </g>
                <g transform="matrix(0.963738,0,0,-0.742947,659.809,1725.09)">
                    <path d="M4751.99,1012.57C4751.99,1012.67 4751.94,1012.77 4751.87,1012.85C4751.8,1012.92 4751.69,1012.96 4751.59,1012.96L4749.62,1012.96C4749.4,1012.96 4749.22,1012.79 4749.22,1012.57L4749.22,1011.96C4749.22,1011.5 4749.4,1011.05 4749.73,1010.73C4750.05,1010.4 4750.49,1010.22 4750.95,1010.22C4751.92,1010.22 4753.04,1010.22 4753.62,1010.21C4753.73,1010.21 4753.83,1010.26 4753.9,1010.33C4753.98,1010.4 4754.02,1010.51 4754.02,1010.61L4754.02,1011.34C4754.02,1011.56 4753.84,1011.74 4753.62,1011.74L4752.57,1011.74C4752.25,1011.74 4751.99,1011.92 4751.99,1012.15L4751.99,1012.57Z" style="fill:rgb(167,163,252);"/>
                </g>
            </g>
        </g>
    </g>
</svg>
